<mxfile host="app.diagrams.net" modified="2022-12-25T07:48:38.184Z" agent="5.0 (Macintosh; Intel Mac OS X 10_13_6) AppleWebKit/537.36 (KHTML, like Gecko) Chrome/108.0.0.0 Safari/537.36" version="20.7.4" etag="BdglhtGeh6wbJRwFW4at" type="github">
  <diagram id="3NdfI19EqaOqSO1-C6-o" name="Page-1">
    <mxGraphModel dx="954" dy="545" grid="1" gridSize="10" guides="1" tooltips="1" connect="1" arrows="1" fold="1" page="1" pageScale="1" pageWidth="850" pageHeight="1100" math="0" shadow="0">
      <root>
        <mxCell id="0" />
        <mxCell id="1" parent="0" />
        <mxCell id="HZ-BumPmGdAb4Vs39T21-1" value="" style="shape=cylinder3;whiteSpace=wrap;html=1;boundedLbl=1;backgroundOutline=1;size=15;" vertex="1" parent="1">
          <mxGeometry x="110" y="190" width="60" height="80" as="geometry" />
        </mxCell>
        <mxCell id="HZ-BumPmGdAb4Vs39T21-2" value="" style="whiteSpace=wrap;html=1;aspect=fixed;" vertex="1" parent="1">
          <mxGeometry x="300" y="200" width="80" height="80" as="geometry" />
        </mxCell>
        <mxCell id="HZ-BumPmGdAb4Vs39T21-3" value="" style="endArrow=classic;html=1;rounded=0;exitX=1;exitY=0;exitDx=0;exitDy=52.5;exitPerimeter=0;entryX=0;entryY=0.5;entryDx=0;entryDy=0;" edge="1" parent="1" source="HZ-BumPmGdAb4Vs39T21-1" target="HZ-BumPmGdAb4Vs39T21-2">
          <mxGeometry width="50" height="50" relative="1" as="geometry">
            <mxPoint x="200" y="400" as="sourcePoint" />
            <mxPoint x="250" y="350" as="targetPoint" />
          </mxGeometry>
        </mxCell>
      </root>
    </mxGraphModel>
  </diagram>
</mxfile>
